<?xml version="1.0" encoding="UTF-8"?>
<svg version="1.1" xmlns="http://www.w3.org/2000/svg" width="48" height="48">
<path d="M0 0 C1.02996094 -0.00128906 2.05992188 -0.00257812 3.12109375 -0.00390625 C4.74724609 0.00189453 4.74724609 0.00189453 6.40625 0.0078125 C7.49035156 0.00394531 8.57445313 0.00007812 9.69140625 -0.00390625 C10.72136719 -0.00261719 11.75132813 -0.00132813 12.8125 0 C14.24045898 0.00169189 14.24045898 0.00169189 15.69726562 0.00341797 C17.90625 0.1328125 17.90625 0.1328125 18.90625 1.1328125 C18.99483646 3.87175335 19.02148479 6.5853452 19.00390625 9.32421875 C19.0024913 10.14405746 19.00107635 10.96389618 18.99961853 11.80857849 C18.99400289 14.43752632 18.98144779 17.06639023 18.96875 19.6953125 C18.96373701 21.47330607 18.95917376 23.25130096 18.95507812 25.02929688 C18.94402839 29.39716795 18.92675331 33.76497598 18.90625 38.1328125 C14.94625 38.1328125 10.98625 38.1328125 6.90625 38.1328125 C6.90625 39.4528125 6.90625 40.7728125 6.90625 42.1328125 C-1.01375 42.1328125 -8.93375 42.1328125 -17.09375 42.1328125 C-16.09375 35.1328125 -16.09375 35.1328125 -14.21875 33.1953125 C-12.09375 32.1328125 -12.09375 32.1328125 -9.09375 32.1328125 C-9.75375 31.1634375 -10.41375 30.1940625 -11.09375 29.1953125 C-13.52608165 24.92135832 -14.03503761 20.96040637 -13.09375 16.1328125 C-11.28125 13.5703125 -11.28125 13.5703125 -9.09375 12.1328125 C-8.10375 12.1328125 -7.11375 12.1328125 -6.09375 12.1328125 C-6.10535156 11.35035156 -6.11695313 10.56789063 -6.12890625 9.76171875 C-6.13792969 8.74980469 -6.14695312 7.73789063 -6.15625 6.6953125 C-6.16785156 5.68597656 -6.17945313 4.67664063 -6.19140625 3.63671875 C-6.01711938 -0.83199651 -3.95153664 0.00468192 0 0 Z " fill="#8EC9F8" transform="translate(23.09375,2.8671875)"/>
<path d="M0 0 C1.52164099 2.89111788 2 4.71823412 2 8 C0.23216891 12.46166894 -1.81142982 16.72707726 -4 21 C-7 20 -7 20 -8.09765625 18.14453125 C-9.08062447 15.76869307 -10.05468353 13.39109459 -11 11 C-11.474375 9.906875 -11.94875 8.81375 -12.4375 7.6875 C-13 5 -13 5 -12 2.75 C-8.65149494 -0.17994192 -4.20622774 -2.25333629 0 0 Z " fill="#F3AE49" transform="translate(23,21)"/>
<path d="M0 0 C1.98 0 3.96 0 6 0 C5.95875 0.928125 5.9175 1.85625 5.875 2.8125 C5.72863661 6.15809719 5.72863661 6.15809719 8 9 C8 10.32 8 11.64 8 13 C0.08 13 -7.84 13 -16 13 C-15 6 -15 6 -13.1875 4 C-11 3 -11 3 -8.875 3 C-6.20633222 4.42328948 -5.8642313 6.19124829 -5 9 C-4.34 9 -3.68 9 -3 9 C-2.01 6.03 -1.02 3.06 0 0 Z " fill="#4B5C67" transform="translate(22,32)"/>
<path d="M0 0 C0.33 0.33 0.66 0.66 1 1 C2.99958364 1.04080783 5.00045254 1.04254356 7 1 C7 2.65 7 4.3 7 6 C6.34 6 5.68 6 5 6 C5 6.99 5 7.98 5 9 C5.66 9 6.32 9 7 9 C7 10.65 7 12.3 7 14 C6.01 13.67 5.02 13.34 4 13 C2.3125 9.4375 2.3125 9.4375 1 6 C-0.46184058 6.22860058 -1.91955419 6.48370392 -3.375 6.75 C-4.18710937 6.88921875 -4.99921875 7.0284375 -5.8359375 7.171875 C-8.17709092 7.81749261 -8.17709092 7.81749261 -9.2890625 10.078125 C-9.52367187 10.71234375 -9.75828125 11.3465625 -10 12 C-11 11 -11 11 -11.3125 7.6875 C-11 4 -11 4 -9.4375 1.5625 C-6.15684085 -0.54048663 -3.82011276 -0.360388 0 0 Z " fill="#414951" transform="translate(21,15)"/>
<path d="M0 0 C1.97265625 0.84765625 1.97265625 0.84765625 3.01953125 2.9140625 C3.99609375 6.38085938 3.99609375 6.38085938 4.97265625 9.84765625 C1.01265625 9.84765625 -2.94734375 9.84765625 -7.02734375 9.84765625 C-6.54189308 3.41543482 -6.54189308 3.41543482 -4.21484375 0.84765625 C-2.02734375 -0.15234375 -2.02734375 -0.15234375 0 0 Z " fill="#465A64" transform="translate(13.02734375,35.15234375)"/>
<path d="M0 0 C1.98 0 3.96 0 6 0 C6 2.97 6 5.94 6 9 C4.02 9 2.04 9 0 9 C0 6.03 0 3.06 0 0 Z " fill="#BF360C" transform="translate(31,32)"/>
<path d="M0 0 C2.64 0 5.28 0 8 0 C7.5020163 3.73487777 7.12508244 5.81237635 5 9 C4.01 8.67 3.02 8.34 2 8 C0.5522078 5.10441559 0 3.25811062 0 0 Z " fill="#E6986C" transform="translate(14,33)"/>
<path d="M0 0 C1.98 0 3.96 0 6 0 C6 1.65 6 3.3 6 5 C4.02 5 2.04 5 0 5 C0 3.35 0 1.7 0 0 Z " fill="#1565C0" transform="translate(31,24)"/>
<path d="M0 0 C1.98 0 3.96 0 6 0 C6 1.65 6 3.3 6 5 C4.02 5 2.04 5 0 5 C0 3.35 0 1.7 0 0 Z " fill="#1565C0" transform="translate(31,16)"/>
<path d="M0 0 C1.98 0 3.96 0 6 0 C6 1.65 6 3.3 6 5 C4.02 5 2.04 5 0 5 C0 3.35 0 1.7 0 0 Z " fill="#1565C0" transform="translate(31,8)"/>
<path d="M0 0 C1.98 0 3.96 0 6 0 C6 1.65 6 3.3 6 5 C4.02 5 2.04 5 0 5 C0 3.35 0 1.7 0 0 Z " fill="#1565C0" transform="translate(22,8)"/>
<path d="M0 0 C1.98 0 3.96 0 6 0 C6 1.65 6 3.3 6 5 C4.35 4.67 2.7 4.34 1 4 C0.67 2.68 0.34 1.36 0 0 Z " fill="#1965BB" transform="translate(22,32)"/>
<path d="M0 0 C1.98 0 3.96 0 6 0 C6 1.65 6 3.3 6 5 C2.83884224 3.63016497 2.0072908 3.0109362 0 0 Z " fill="#1763BA" transform="translate(22,16)"/>
</svg>
